<svg width="24" height="24" viewBox="0 0 24 24" fill="none" xmlns="http://www.w3.org/2000/svg">
<path fill-rule="evenodd" clip-rule="evenodd" d="M12.6751 6.07216C12.7189 5.8747 11.799 6.23614 11.9147 6.14401C11.9742 6.09672 12.9989 5.85161 12.5946 5.22344C12.4424 4.98713 13.2628 5.54321 13.3487 5.5641C13.4075 5.94826 13.1525 5.90635 12.6751 6.07216ZM11.9999 21.9997C14.7613 21.9997 17.2613 20.8804 19.0709 19.0706C20.8805 17.261 21.9999 14.7611 21.9999 11.9997C21.9999 9.23842 20.8805 6.73845 19.0709 4.92885C17.2613 3.11924 14.7612 2 11.9999 2C9.23854 2 6.73845 3.11924 4.92885 4.92885C3.11936 6.73845 2 9.23842 2 11.9997C2 14.7611 3.11924 17.2613 4.92885 19.0708C6.73845 20.8802 9.23842 21.9997 11.9999 21.9997ZM6.30309 18.897C7.85036 20.1763 9.8353 20.9451 11.9999 20.9451C14.3321 20.9451 16.4558 20.0524 18.0482 18.5904L18.0484 18.589C18.0414 18.0002 18.3257 17.9287 18.3426 17.5691C18.3624 17.149 18.7603 17.5268 19.247 16.97C19.7648 16.6759 19.6017 16.3741 19.6117 15.8582C19.6155 15.661 19.6294 15.4626 19.8342 15.2067C20.0902 14.9495 20.1939 15.0937 20.3057 15.0157C20.409 14.9437 20.3882 14.7475 20.4892 14.7135C20.5035 14.7087 20.5175 14.7025 20.5314 14.6958C20.8 13.845 20.945 12.9392 20.945 11.9996C20.945 11.8521 20.9413 11.7055 20.9343 11.5599C20.8419 11.677 20.7418 11.7434 20.7474 11.841C20.7604 12.0742 20.5831 12.1579 20.6972 12.5485C20.7546 12.7445 20.8437 12.8989 20.5346 13.272C20.1241 13.1564 20.4446 12.7997 20.3016 12.6999C19.9731 12.4709 19.9591 12.3901 20 11.9507C20.0291 11.6378 19.9701 11.3762 19.8201 11.0982C19.5866 10.665 19.3227 10.9798 18.8384 10.6452C18.4348 11.2664 18.8077 11.7359 17.9351 12.1335C17.6283 12.2736 17.3875 12.1798 17.0264 12.315C16.7744 11.7009 16.5398 11.7061 16.3549 11.4705C15.9645 10.9734 16.0787 10.2512 15.9225 10.4167C15.771 11.7771 16.2326 11.8058 16.3212 12.2424C16.3716 12.4916 16.6822 12.5376 16.9221 12.5946C17.1908 12.6582 17.6764 12.4593 17.9375 12.7166C18.1365 13.0074 17.7192 13.1099 17.8991 13.2758C18.1601 13.5163 17.7489 13.8835 17.5554 14.0235C16.8791 14.5133 17.107 14.885 16.5125 15.1121C16.2501 15.2124 16.1789 15.7281 16.272 16.1441C17.0241 16.6419 17.5439 15.8597 17.2709 16.7643C17.1941 17.0189 17.2072 17.3082 17.0802 17.5219C16.981 17.6892 16.6026 17.4845 16.5201 17.8634C15.7656 17.9641 15.9183 17.4573 15.5982 17.1771C15.5466 17.663 15.3421 17.8496 15.1726 18.147C14.9417 18.552 14.5614 18.8121 14.0735 18.854C13.233 18.9263 13.5249 19.4602 13.3004 19.3768C12.943 19.2444 12.4911 18.7036 12.4874 18.1036C12.4843 17.5845 12.1624 17.3153 12.2358 17.0413C12.4039 16.414 12.375 16.1114 12.0999 15.5543C11.9901 15.3317 11.6516 15.3189 11.4515 14.6857C11.3052 14.2231 11.0356 13.7541 10.8536 13.6767C10.3843 13.4768 10.2025 13.8992 9.28558 13.7539C8.89543 13.6922 8.68087 13.6344 8.31969 13.5429C7.95459 13.4502 7.5642 13.0021 7.73343 12.8262C8.03951 12.5083 7.68272 12.2973 7.82629 11.9065C7.91292 11.6708 7.64203 11.4736 7.96204 11.0584C8.03939 10.7226 7.99589 10.4023 8.295 10.2273C8.61941 10.0375 8.58239 9.5605 8.82408 9.5368C9.46862 9.47338 9.68049 9.09106 9.22754 8.97437C8.63469 8.82176 9.03681 8.94553 8.9751 8.10488C8.91841 7.33082 9.41608 8.05307 9.76859 7.69188C10.3892 7.05602 9.97301 7.48062 9.63284 7.0537C9.47265 6.8527 9.30574 7.04001 9.07737 7.02095C9.15741 6.59769 9.03131 6.22441 10.2224 5.63815C10.8066 6.56763 10.0617 6.1528 11.0914 6.88398C11.4074 6.04931 11.7241 5.84917 11.5648 5.32119C11.4768 5.03002 11.6497 4.44413 12.3045 4.24019C12.4488 4.19535 12.8259 4.49068 12.9934 4.44999C13.4478 4.33953 13.9804 3.94927 14.3549 4.04885C14.6273 4.12106 14.0501 4.52746 14.9908 4.88046C15.1812 4.95182 15.374 5.15379 16.0133 4.79187C16.165 4.70598 16.23 4.61262 16.4321 4.47333C15.9453 4.03028 15.5174 3.81034 15.0736 3.5959C14.1151 3.24583 13.0799 3.05448 11.9999 3.05448C10.2208 3.05448 8.56321 3.57378 7.17002 4.46918C7.25298 4.67201 7.41012 4.93728 7.41061 5.09282C7.41122 5.30726 7.13116 5.51694 7.24333 5.65342C7.65156 6.1506 7.5791 6.68005 7.41513 6.57912C7.03879 6.34757 6.90903 6.72012 6.54967 6.71902C5.69704 6.71597 6.37286 7.60916 5.77133 7.85036C5.55983 7.85513 5.14316 7.87394 4.96049 7.90571C4.721 7.94726 4.71123 8.33313 4.52245 8.41756C4.27099 8.53034 4.06424 8.55196 3.94022 8.6331C3.80374 8.72229 3.68375 8.83898 3.57879 8.97522C3.2396 9.91998 3.05448 10.9382 3.05448 11.9997C3.05448 12.1739 3.05961 12.3466 3.06951 12.5181C3.10641 12.7833 3.15431 12.9869 3.20868 13.0756C3.61117 13.5944 3.83551 13.0608 4.13389 13.5866C4.23127 13.7583 3.95709 14.0135 4.52306 14.32C4.90148 15.0943 5.21122 14.5092 5.42322 14.6305C6.16893 15.0573 6.36602 15.1482 6.21695 16.3647C6.09782 17.3374 6.69006 17.2043 6.16343 17.7438C6.11566 17.9481 5.64316 18.2767 6.24041 18.5989C6.32888 18.6466 6.31776 18.761 6.30309 18.897ZM11.5891 8.15828C11.6948 8.11979 11.733 8.0053 11.9404 8.02582C12.0702 8.13262 12.1829 8.13775 12.3044 8.19371C12.6506 8.34278 12.6462 8.70629 12.8122 8.62381C13.0222 8.51922 13.3599 8.72083 13.5525 8.77288C14.6072 9.05807 14.6735 8.80453 15.352 9.39482C15.2331 10.387 14.5504 10.2918 14.2144 9.54059C13.997 9.05452 13.0776 9.38846 12.7444 9.45787C12.3424 9.49562 12.1531 8.81516 11.965 8.70885C11.5314 8.46362 11.3744 8.79878 10.765 8.44676C11.1745 7.98232 10.7935 8.32482 11.5891 8.15828ZM15.9838 5.17115C16.3775 5.05421 16.4697 4.87252 16.6285 4.86775C16.8702 4.86042 17.0597 5.06997 17.5241 5.33964C17.2015 5.29492 16.4577 5.11885 15.7157 5.76205C15.5684 5.88998 16.1671 5.30091 15.9838 5.17115Z" fill="#121112"/>
</svg>
