<svg width="24" height="24" viewBox="0 0 24 24" fill="none" xmlns="http://www.w3.org/2000/svg">
<g clip-path="url(#clip0_32_3262)">
<path d="M4 14V11C4 8.87827 4.84285 6.84344 6.34315 5.34315C7.84344 3.84285 9.87827 3 12 3C14.1217 3 16.1566 3.84285 17.6569 5.34315C19.1571 6.84344 20 8.87827 20 11V14" stroke="#121112" stroke-width="2" stroke-linecap="round" stroke-linejoin="round"/>
<path d="M18 19C18 20.657 15.314 22 12 22" stroke="#121112" stroke-width="2" stroke-linecap="round" stroke-linejoin="round"/>
<path d="M4 14C4 13.4696 4.21071 12.9609 4.58579 12.5858C4.96086 12.2107 5.46957 12 6 12H7C7.53043 12 8.03914 12.2107 8.41421 12.5858C8.78929 12.9609 9 13.4696 9 14V17C9 17.5304 8.78929 18.0391 8.41421 18.4142C8.03914 18.7893 7.53043 19 7 19H6C5.46957 19 4.96086 18.7893 4.58579 18.4142C4.21071 18.0391 4 17.5304 4 17V14Z" stroke="#121112" stroke-width="2" stroke-linecap="round" stroke-linejoin="round"/>
<path d="M15 14C15 13.4696 15.2107 12.9609 15.5858 12.5858C15.9609 12.2107 16.4696 12 17 12H18C18.5304 12 19.0391 12.2107 19.4142 12.5858C19.7893 12.9609 20 13.4696 20 14V17C20 17.5304 19.7893 18.0391 19.4142 18.4142C19.0391 18.7893 18.5304 19 18 19H17C16.4696 19 15.9609 18.7893 15.5858 18.4142C15.2107 18.0391 15 17.5304 15 17V14Z" stroke="#121112" stroke-width="2" stroke-linecap="round" stroke-linejoin="round"/>
</g>
<defs>
<clipPath id="clip0_32_3262">
<rect width="24" height="24" fill="white"/>
</clipPath>
</defs>
</svg>
