<svg width="24" height="24" viewBox="0 0 24 24" fill="none" xmlns="http://www.w3.org/2000/svg">
<g clip-path="url(#clip0_79_3520)">
<path d="M10.5846 10.587C10.2096 10.9622 9.99893 11.4709 9.99902 12.0014C9.99912 12.5318 10.2099 13.0405 10.5851 13.4155C10.9602 13.7906 11.469 14.0012 11.9994 14.0011C12.5299 14.001 13.0386 13.7902 13.4136 13.415" stroke="#121112" stroke-width="2" stroke-linecap="round" stroke-linejoin="round"/>
<path d="M16.681 16.673C15.2782 17.5507 13.6547 18.0109 12 18C8.4 18 5.4 16 3 12C4.272 9.88003 5.712 8.32203 7.32 7.32603M10.18 6.18003C10.779 6.05876 11.3888 5.99845 12 6.00003C15.6 6.00003 18.6 8.00003 21 12C20.334 13.11 19.621 14.067 18.862 14.87" stroke="#121112" stroke-width="2" stroke-linecap="round" stroke-linejoin="round"/>
<path d="M3 3L21 21" stroke="#121112" stroke-width="2" stroke-linecap="round" stroke-linejoin="round"/>
</g>
<defs>
<clipPath id="clip0_79_3520">
<rect width="24" height="24" fill="white"/>
</clipPath>
</defs>
</svg>
