<svg width="24" height="24" viewBox="0 0 24 24" fill="none" xmlns="http://www.w3.org/2000/svg">
<path d="M20 12.67C20 11.6817 19.1036 10.97 18.1154 10.97H13.246C12.3776 10.97 11.6735 11.674 11.6735 12.5425V12.5425C11.6735 13.411 12.3776 14.115 13.246 14.115H13.924C15.2673 14.115 16.2643 15.3667 15.322 16.3241C15.1418 16.5071 14.938 16.6798 14.7093 16.835C14.0154 17.345 12.9746 17.685 11.6735 17.685C9.41838 17.685 7.42348 16.24 6.7296 14.115C6.55613 13.605 6.4694 13.01 6.4694 12.415C6.4694 11.8658 6.5433 11.3165 6.69111 10.8341C6.71555 10.7544 6.759 10.6579 6.78444 10.5785V10.5785C6.85238 10.3665 6.94567 10.1834 7.0486 9.98598C7.89523 8.36198 9.63035 7.23 11.6735 7.23C12.5142 7.23 13.1969 7.40697 13.7561 7.65934C14.5588 8.02156 15.5389 8.03193 16.1679 7.41557V7.41557C16.8769 6.72071 16.8437 5.55209 15.9723 5.07647C14.743 4.4055 13.291 4 11.6735 4C8.29083 4 5.34184 5.87 3.95408 8.675C3.34694 9.865 3 11.14 3 12.5C3 13.86 3.34694 15.135 3.95408 16.325C5.34184 19.13 8.29083 21 11.6735 21C14.0154 21 16.0102 20.235 17.398 18.96C19.0459 17.515 20 15.305 20 12.67V12.67Z" stroke="#121112" stroke-width="2" stroke-miterlimit="10" stroke-linecap="round" stroke-linejoin="round"/>
</svg>
