<svg width="16" height="17" viewBox="0 0 16 17" fill="none" xmlns="http://www.w3.org/2000/svg">
<g clip-path="url(#clip0_21_5001)">
<path d="M5.33301 6.50016C5.33301 6.67697 5.40325 6.84654 5.52827 6.97157C5.65329 7.09659 5.82286 7.16683 5.99967 7.16683C6.17649 7.16683 6.34605 7.09659 6.47108 6.97157C6.5961 6.84654 6.66634 6.67697 6.66634 6.50016C6.66634 6.32335 6.5961 6.15378 6.47108 6.02876C6.34605 5.90373 6.17649 5.8335 5.99967 5.8335C5.82286 5.8335 5.65329 5.90373 5.52827 6.02876C5.40325 6.15378 5.33301 6.32335 5.33301 6.50016Z" stroke="#6C6A6C" stroke-width="2" stroke-linecap="round" stroke-linejoin="round"/>
<path d="M2 4.5V7.948C2.00008 8.30159 2.1406 8.64068 2.39067 8.89067L7.53067 14.0307C7.83197 14.3319 8.24059 14.5012 8.66667 14.5012C9.09274 14.5012 9.50137 14.3319 9.80267 14.0307L13.5307 10.3027C13.8319 10.0014 14.0012 9.59274 14.0012 9.16667C14.0012 8.74059 13.8319 8.33197 13.5307 8.03067L8.39067 2.89067C8.14068 2.6406 7.80159 2.50008 7.448 2.5H4C3.46957 2.5 2.96086 2.71071 2.58579 3.08579C2.21071 3.46086 2 3.96957 2 4.5Z" stroke="#6C6A6C" stroke-width="2" stroke-linecap="round" stroke-linejoin="round"/>
</g>
<defs>
<clipPath id="clip0_21_5001">
<rect width="16" height="16" fill="white" transform="translate(0 0.5)"/>
</clipPath>
</defs>
</svg>
