<svg width="24" height="24" viewBox="0 0 24 24" fill="none" xmlns="http://www.w3.org/2000/svg">
<g clip-path="url(#clip0_33_4576)">
<path d="M4 17C4 17.5304 4.21071 18.0391 4.58579 18.4142C4.96086 18.7893 5.46957 19 6 19C6.53043 19 7.03914 18.7893 7.41421 18.4142C7.78929 18.0391 8 17.5304 8 17C8 16.4696 7.78929 15.9609 7.41421 15.5858C7.03914 15.2107 6.53043 15 6 15C5.46957 15 4.96086 15.2107 4.58579 15.5858C4.21071 15.9609 4 16.4696 4 17Z" stroke="#121112" stroke-width="2" stroke-linecap="round" stroke-linejoin="round"/>
<path d="M16 17C16 17.5304 16.2107 18.0391 16.5858 18.4142C16.9609 18.7893 17.4696 19 18 19C18.5304 19 19.0391 18.7893 19.4142 18.4142C19.7893 18.0391 20 17.5304 20 17C20 16.4696 19.7893 15.9609 19.4142 15.5858C19.0391 15.2107 18.5304 15 18 15C17.4696 15 16.9609 15.2107 16.5858 15.5858C16.2107 15.9609 16 16.4696 16 17Z" stroke="#121112" stroke-width="2" stroke-linecap="round" stroke-linejoin="round"/>
<path d="M4 17H2V6C2 5.73478 2.10536 5.48043 2.29289 5.29289C2.48043 5.10536 2.73478 5 3 5H17C18.3261 5 19.5979 5.7375 20.5355 7.05025C21.4732 8.36301 22 10.1435 22 12V17H20M16 17H8" stroke="#121112" stroke-width="2" stroke-linecap="round" stroke-linejoin="round"/>
<path d="M16 5L17.5 12H22" stroke="#121112" stroke-width="2" stroke-linecap="round" stroke-linejoin="round"/>
<path d="M2 10H17" stroke="#121112" stroke-width="2" stroke-linecap="round" stroke-linejoin="round"/>
<path d="M7 5V10" stroke="#121112" stroke-width="2" stroke-linecap="round" stroke-linejoin="round"/>
<path d="M12 5V10" stroke="#121112" stroke-width="2" stroke-linecap="round" stroke-linejoin="round"/>
</g>
<defs>
<clipPath id="clip0_33_4576">
<rect width="24" height="24" fill="white"/>
</clipPath>
</defs>
</svg>
