<svg width="24" height="24" viewBox="0 0 24 24" fill="none" xmlns="http://www.w3.org/2000/svg">
<g clip-path="url(#clip0_33_4592)">
<path d="M19.5003 12.5721L12.0003 20.0001L4.5003 12.5721C4.00561 12.0907 3.61594 11.5121 3.35585 10.8727C3.09575 10.2333 2.97086 9.54701 2.98904 8.85699C3.00721 8.16697 3.16806 7.48819 3.46146 6.86339C3.75485 6.23859 4.17444 5.68131 4.69379 5.22663C5.21314 4.77196 5.82101 4.42974 6.47911 4.22154C7.13722 4.01333 7.83131 3.94364 8.51767 4.01686C9.20403 4.09007 9.8678 4.30461 10.4672 4.64696C11.0666 4.98931 11.5885 5.45205 12.0003 6.00605C12.4138 5.45608 12.9364 4.99738 13.5354 4.65866C14.1344 4.31994 14.7968 4.1085 15.4812 4.03757C16.1657 3.96665 16.8574 4.03775 17.5131 4.24645C18.1688 4.45514 18.7743 4.79693 19.2919 5.25042C19.8094 5.70391 20.2277 6.25934 20.5207 6.88195C20.8137 7.50456 20.975 8.18094 20.9946 8.86876C21.0142 9.55659 20.8916 10.241 20.6344 10.8793C20.3773 11.5176 19.9912 12.0959 19.5003 12.5781" stroke="#160C28" stroke-width="2" stroke-linecap="round" stroke-linejoin="round"/>
</g>
<defs>
<clipPath id="clip0_33_4592">
<rect width="24" height="24" fill="white"/>
</clipPath>
</defs>
</svg>
