<svg width="24" height="24" viewBox="0 0 24 24" fill="none" xmlns="http://www.w3.org/2000/svg">
<g clip-path="url(#clip0_32_3236)">
<path d="M17.5533 16.75C16.1468 15.3436 14.2392 14.5536 12.2503 14.5536C10.2613 14.5536 8.35376 15.3436 6.94727 16.75" stroke="#87BFFF" stroke-width="2" stroke-linecap="round" stroke-linejoin="round"/>
<path d="M17.9997 3.80396C16.6216 3.00834 14.984 2.79274 13.4469 3.20456C11.9099 3.61639 10.5994 4.62192 9.80371 5.99996L20.1957 12C20.9913 10.6219 21.2069 8.9842 20.7951 7.44716C20.3833 5.91013 19.3777 4.59963 17.9997 3.80396Z" stroke="#87BFFF" stroke-width="2" stroke-linecap="round" stroke-linejoin="round"/>
<path d="M16.7316 10C18.3896 7.13003 18.9566 4.35603 17.9996 3.80403C17.0426 3.25203 14.9246 5.13003 13.2676 8.00003" stroke="#87BFFF" stroke-width="2" stroke-linecap="round" stroke-linejoin="round"/>
<path d="M15 9L12 14.196" stroke="#87BFFF" stroke-width="2" stroke-linecap="round" stroke-linejoin="round"/>
<path d="M3 19.25C3.31129 19.0953 3.65249 19.01 4 19C4.3895 18.9919 4.77512 19.0787 5.12358 19.2529C5.47203 19.4271 5.77283 19.6835 6 20C6.22717 20.3165 6.52797 20.573 6.87642 20.7472C7.22488 20.9214 7.6105 21.0082 8 21C8.3895 21.0082 8.77512 20.9214 9.12358 20.7472C9.47203 20.573 9.77283 20.3165 10 20C10.2272 19.6835 10.528 19.4271 10.8764 19.2529C11.2249 19.0787 11.6105 18.9919 12 19C12.3895 18.9919 12.7751 19.0787 13.1236 19.2529C13.472 19.4271 13.7728 19.6835 14 20C14.2272 20.3165 14.528 20.573 14.8764 20.7472C15.2249 20.9214 15.6105 21.0082 16 21C16.3895 21.0082 16.7751 20.9214 17.1236 20.7472C17.472 20.573 17.7728 20.3165 18 20C18.2272 19.6835 18.528 19.4271 18.8764 19.2529C19.2249 19.0787 19.6105 18.9919 20 19C20.3475 19.01 20.6887 19.0953 21 19.25" stroke="#87BFFF" stroke-width="2" stroke-linecap="round" stroke-linejoin="round"/>
</g>
<defs>
<clipPath id="clip0_32_3236">
<rect width="24" height="24" fill="white"/>
</clipPath>
</defs>
</svg>
